<?xml version="1.0" encoding="utf-8"?>
<!-- Generator: Adobe Illustrator 25.0.1, SVG Export Plug-In . SVG Version: 6.00 Build 0)  -->
<svg version="1.1" id="Layer_1" xmlns="http://www.w3.org/2000/svg" xmlns:xlink="http://www.w3.org/1999/xlink" x="0px" y="0px"
	 viewBox="0 0 634 90" style="enable-background:new 0 0 634 90;" xml:space="preserve">
<style type="text/css">
	.st0{fill:#FFFFFF;}
	.st1{fill:none;stroke:#FFFFFF;stroke-width:1.5828;stroke-miterlimit:10;}
</style>
<g>
	<g>
		<polygon class="st0" points="94.1,15.7 95.7,15.7 95.6,18.4 98.2,17.5 98.7,18.9 96,19.6 97.7,21.7 96.5,22.6 94.9,20.3 
			93.3,22.6 92.1,21.7 93.8,19.6 91.1,18.9 91.6,17.5 94.3,18.4 		"/>
		<path class="st0" d="M121.8,21.9v8.9c0,0.2,0,0.4-0.1,0.6h1.4v1.7h-0.9l-0.8-0.8h-0.1c-0.5,0.6-1.1,0.8-1.8,0.8H105
			c-0.9,0-1.8-0.3-2.5-0.9c-1-0.8-1.5-1.8-1.5-3.1v-4.6l1.1-0.8h1.1v5.4c0,0.6,0.2,1.2,0.7,1.6c0.5,0.5,1.1,0.7,1.7,0.7h13
			c0.3,0,0.5-0.1,0.7-0.3c0.2-0.2,0.2-0.4,0.2-0.6v-8.5H121.8z M111.4,35.6c0.3,0,0.6,0.1,0.9,0.4c0.2,0.2,0.4,0.5,0.4,0.8
			c0,0.3-0.1,0.6-0.4,0.9c-0.2,0.2-0.5,0.4-0.9,0.4c-0.4,0-0.7-0.1-0.9-0.4c-0.2-0.2-0.4-0.5-0.4-0.9c0-0.3,0.1-0.6,0.4-0.8
			C110.8,35.7,111.1,35.6,111.4,35.6"/>
		<path class="st0" d="M126.2,22.3c1.6-0.5,3-0.7,4.3-0.7c2.1,0,3.7,0.6,4.8,1.9c0.9,1.1,1.4,2.5,1.4,4.2v3.1c0,0.2,0,0.4-0.1,0.6
			h0.9v1.7H137l-0.7-0.9h-0.1c-0.5,0.6-1.1,0.9-1.8,0.9h-11.6v-1.7h10.8c0.6,0,1-0.3,1-0.9v-2.8c0-1.3-0.3-2.3-1-3
			c-0.8-0.8-1.9-1.2-3.3-1.2c-0.9,0-2.2,0.2-4,0.5V22.3z"/>
		<path class="st0" d="M161.4,21.9v8.9c0,0.2,0,0.4-0.1,0.6h1.4v1.7h-1l-0.7-0.9h-0.1c-0.5,0.6-1.1,0.9-1.8,0.9h-5l-0.7-0.9h-0.1
			c-0.5,0.6-1.1,0.9-1.8,0.9h-5l-0.7-0.9h-0.1c-0.5,0.6-1.1,0.9-1.8,0.9h-6.7v-1.7h5.9c0.6,0,1-0.3,1-0.9v-5.7h2.2v6.1
			c0,0.2,0,0.4-0.1,0.6h4.5c0.6,0,1-0.3,1-0.9v-7.1h2.1v7.5c0,0.2,0,0.4-0.1,0.6h4.5c0.6,0,1-0.3,1-0.9v-8.5H161.4z"/>
		<path class="st0" d="M169.2,15.7v15.1c0,0.6-0.2,1.2-0.7,1.6c-0.5,0.5-1,0.7-1.6,0.7h-4.4v-1.7h3.6c0.3,0,0.6-0.1,0.7-0.3
			c0.2-0.2,0.2-0.4,0.2-0.6V15.7H169.2z"/>
		<polygon class="st0" points="174.3,15.7 174.3,32.8 173.3,33.7 172.2,33.7 172.2,15.7 		"/>
		<path class="st0" d="M182.7,28.9v4c0,1.6,0.4,2.7,1.3,3.4c0.9,0.6,2.4,1,4.6,1c2.1,0,3.5-0.2,4.4-0.8c1.1-0.6,1.6-1.7,1.7-3.3
			h-1.9l-0.9-1v-0.7h5.6v1.7h-0.7c-0.1,2-0.8,3.5-2.1,4.5c-1.2,0.9-2.7,1.3-4.6,1.3h-2.8c-2.1,0-3.8-0.5-5-1.6
			c-1.2-1.1-1.7-2.5-1.7-4.4v-3.2l1.1-0.8H182.7z M187.2,40.3c0.3,0,0.6,0.1,0.9,0.4c0.2,0.2,0.4,0.5,0.4,0.9c0,0.3-0.1,0.6-0.4,0.8
			c-0.2,0.2-0.5,0.4-0.9,0.4c-0.3,0-0.6-0.1-0.9-0.4c-0.2-0.2-0.4-0.5-0.4-0.8c0-0.3,0.1-0.6,0.4-0.9
			C186.5,40.4,186.8,40.3,187.2,40.3 M190.2,40.3c0.3,0,0.6,0.1,0.9,0.4c0.2,0.2,0.4,0.5,0.4,0.9c0,0.3-0.1,0.6-0.4,0.8
			c-0.2,0.2-0.5,0.4-0.9,0.4c-0.4,0-0.7-0.1-0.9-0.4c-0.2-0.2-0.4-0.5-0.4-0.8c0-0.3,0.1-0.6,0.4-0.9
			C189.6,40.4,189.9,40.3,190.2,40.3"/>
		<path class="st0" d="M201.3,31.4c-0.6-0.6-1.1-1.3-1.4-2.1c-0.2-0.7-0.4-1.4-0.4-2c0-1.7,0.5-3.1,1.6-4.1c1.1-1,2.5-1.5,4.3-1.5
			c1.4,0,2.5,0.3,3.3,1c1,0.8,1.5,1.9,1.5,3.4v4.7c0,0.6-0.2,1.2-0.7,1.6c-0.4,0.5-1,0.7-1.6,0.7h-12.4v-1.7H201.3z M208.1,26
			c0-0.9-0.3-1.6-0.8-2.1c-0.4-0.4-1-0.6-1.8-0.6c-1.4,0-2.4,0.5-3.1,1.4c-0.5,0.6-0.7,1.5-0.7,2.5c0,1.1,0.4,2,1.1,2.8
			c0.8,0.8,1.8,1.2,3,1.2h1.4c0.6,0,0.9-0.3,0.9-0.9V26z M205.5,16.6c0.4,0,0.7,0.1,0.9,0.4c0.2,0.2,0.4,0.5,0.4,0.8
			c0,0.3-0.1,0.6-0.4,0.9c-0.2,0.2-0.5,0.4-0.9,0.4c-0.3,0-0.6-0.1-0.9-0.4c-0.2-0.2-0.4-0.5-0.4-0.9c0-0.3,0.1-0.6,0.4-0.8
			C204.9,16.7,205.2,16.6,205.5,16.6"/>
		<path class="st0" d="M226.5,21.2v7.7c0,1.3-0.4,2.4-1.2,3.1c-0.9,0.9-2.2,1.3-3.9,1.3c-1.5,0-2.7-0.4-3.7-1.1
			c-1.3-1-1.9-2.5-1.9-4.5c0-1.8,0.6-3.3,1.7-4.5c1.1-1.1,2.4-1.6,4-1.6c0.9,0,1.8,0.2,2.7,0.6l1.1-0.8H226.5z M224.3,23.8
			c-0.7-0.4-1.5-0.5-2.3-0.5c-1.3,0-2.4,0.5-3.1,1.5c-0.6,0.8-1,1.8-1,2.9c0,1.2,0.3,2.2,0.9,2.9c0.6,0.7,1.4,1,2.5,1
			c1,0,1.8-0.2,2.2-0.8c0.5-0.5,0.7-1.1,0.7-1.9V23.8z M222.2,16.6c0.3,0,0.6,0.1,0.9,0.4c0.2,0.2,0.4,0.5,0.4,0.8
			c0,0.3-0.1,0.6-0.4,0.9c-0.2,0.2-0.5,0.4-0.9,0.4c-0.3,0-0.6-0.1-0.9-0.4c-0.2-0.2-0.4-0.5-0.4-0.9c0-0.3,0.1-0.6,0.4-0.8
			C221.5,16.7,221.8,16.6,222.2,16.6 M225.2,16.6c0.4,0,0.7,0.1,0.9,0.4c0.2,0.2,0.4,0.5,0.4,0.8c0,0.3-0.1,0.6-0.4,0.9
			c-0.2,0.2-0.5,0.4-0.9,0.4c-0.3,0-0.6-0.1-0.9-0.4c-0.2-0.2-0.4-0.5-0.4-0.9c0-0.3,0.1-0.6,0.4-0.8
			C224.6,16.7,224.9,16.6,225.2,16.6"/>
		<path class="st0" d="M230.9,21.8c0.6-0.1,1.3-0.1,1.9-0.1c1.9,0,3.4,0.5,4.5,1.6c1,1,1.5,2.3,1.5,3.8v3.7c0,0.2,0,0.4-0.1,0.6h0.7
			v1.7h-0.4l-0.7-0.9h-0.1c-0.1,0.2-0.3,0.3-0.5,0.4c-0.4,0.3-0.8,0.4-1.3,0.4h-8.3v-1.7h7.5c0.6,0,0.9-0.3,0.9-0.9v-3.1
			c0-1.2-0.4-2.1-1.1-2.9c-0.8-0.8-2-1.2-3.6-1.2c-0.5,0-0.9,0-1.2,0.1V21.8z"/>
		<path class="st0" d="M242.7,22.3c1.6-0.5,3-0.7,4.3-0.7c2.1,0,3.7,0.6,4.8,1.9c0.9,1.1,1.4,2.5,1.4,4.2v3.1c0,0.6-0.2,1-0.5,1.5
			c-0.4,0.6-1,0.9-1.7,0.9h-11.6v-1.7h10.8c0.6,0,1-0.3,1-0.9v-2.8c0-1.3-0.3-2.3-1-3c-0.8-0.8-1.9-1.2-3.3-1.2
			c-0.9,0-2.2,0.2-4,0.5V22.3z"/>
		<polygon class="st0" points="258.1,15.7 258.1,32.8 257,33.7 255.9,33.7 255.9,15.7 		"/>
		<path class="st0" d="M269.2,32.8c-0.9,0.3-1.8,0.5-2.8,0.5c-1.8,0-3.3-0.6-4.3-1.8c-0.9-1.1-1.4-2.5-1.4-4.2
			c0-1.7,0.5-3.1,1.5-4.1c1.1-1.1,2.5-1.6,4.3-1.6c1.4,0,2.5,0.3,3.3,1c1,0.8,1.5,1.9,1.5,3.4v6.8c0,2.1-0.7,3.6-2.1,4.7
			c-0.7,0.5-1.6,0.9-2.6,1.1c-0.7,0.1-1.3,0.2-2,0.2c-0.4,0-0.8,0-1.2,0l-0.8-1v-0.8c0.5,0.1,1,0.1,1.6,0.1
			C267.5,37.2,269.2,35.7,269.2,32.8 M269.2,26c0-1-0.4-1.8-1.1-2.3c-0.4-0.3-1-0.4-1.6-0.4c-1.1,0-2,0.4-2.7,1.1
			c-0.6,0.7-1,1.7-1,3c0,1.2,0.4,2.2,1.1,2.9c0.7,0.7,1.5,1,2.6,1c1,0,1.8-0.1,2.6-0.4V26z"/>
		<path class="st0" d="M287.6,21.2v9.2c0,0.3,0.1,0.5,0.3,0.7c0.2,0.2,0.3,0.2,0.5,0.2h0.5v1.7h-1.1c-0.8,0-1.4-0.3-1.8-0.9
			c-1.1,0.7-2.3,1.1-3.5,1.1c-1.8,0-3.2-0.7-4.2-2c-0.8-1.1-1.3-2.4-1.3-3.9c0-1.8,0.6-3.2,1.8-4.4c1.1-1.1,2.4-1.6,4-1.6
			c0.9,0,1.8,0.2,2.7,0.6l1.1-0.8H287.6z M285.4,23.8c-0.7-0.4-1.5-0.5-2.3-0.5c-1.3,0-2.3,0.5-3.1,1.5c-0.7,0.8-1,1.7-1,2.8
			c0,1.3,0.3,2.3,1,3.1c0.6,0.7,1.5,1,2.5,1c0.9,0,1.9-0.2,2.9-0.7V23.8z M283.2,16.6c0.3,0,0.6,0.1,0.9,0.4
			c0.2,0.2,0.4,0.5,0.4,0.8c0,0.3-0.1,0.6-0.4,0.9c-0.2,0.2-0.5,0.4-0.9,0.4c-0.3,0-0.6-0.1-0.9-0.4c-0.2-0.2-0.4-0.5-0.4-0.9
			c0-0.3,0.1-0.6,0.4-0.8C282.6,16.7,282.9,16.6,283.2,16.6 M286.3,16.6c0.4,0,0.7,0.1,0.9,0.4c0.2,0.2,0.4,0.5,0.4,0.8
			c0,0.3-0.1,0.6-0.4,0.9c-0.2,0.2-0.5,0.4-0.9,0.4c-0.3,0-0.6-0.1-0.9-0.4c-0.2-0.2-0.4-0.5-0.4-0.9c0-0.3,0.1-0.6,0.4-0.8
			C285.7,16.7,286,16.6,286.3,16.6"/>
		<path class="st0" d="M300.1,15.3v1.9l-6.3,3.6c2.6,0.7,4.7,1.9,6.2,3.8c1.4,1.7,2.1,3.6,2.1,5.8c0,0.8-0.2,1.4-0.6,1.9
			c-0.4,0.5-1,0.7-1.6,0.7h-11.1v-1.7h10.3c0.7,0,1-0.3,1-1c-0.1-1.7-0.6-3.2-1.5-4.4c-1.3-1.9-3.5-3-6.5-3.4
			c-0.1,0-0.2-0.1-0.2-0.2V20L300.1,15.3z"/>
		<path class="st0" d="M310.1,21.9v11c0,1.8-0.5,3.2-1.6,4.3c-0.8,0.8-1.9,1.3-3.3,1.6c-0.5,0.1-1.1,0.1-1.8,0.1c-0.4,0-0.8,0-1.2,0
			l-0.8-1v-0.8c0.5,0.1,1,0.1,1.6,0.1c3.3,0,5-1.5,5-4.4V21.9H310.1z"/>
		<path class="st0" d="M315.3,15.7v14.8c0,0.3,0.1,0.5,0.3,0.7c0.2,0.2,0.4,0.3,0.7,0.3h0.3v1.7h-1.2c-0.5,0-1-0.2-1.4-0.5
			c-0.6-0.5-0.9-1.1-0.9-1.8V15.7H315.3z"/>
		<path class="st0" d="M340.4,21.9v8.9c0,0.2,0,0.4-0.1,0.6h1.4v1.7h-1l-0.7-0.9h-0.1c-0.5,0.6-1.1,0.9-1.8,0.9h-5l-0.7-0.9h-0.1
			c-0.5,0.6-1.1,0.9-1.8,0.9h-5l-0.7-0.9h-0.1c-0.5,0.6-1.1,0.9-1.8,0.9h-6.7v-1.7h5.9c0.6,0,1-0.3,1-0.9v-5.7h2.1v6.1
			c0,0.2,0,0.4-0.1,0.6h4.5c0.6,0,1-0.3,1-0.9v-7.1h2.2v7.5c0,0.2,0,0.4-0.1,0.6h4.5c0.6,0,1-0.3,1-0.9v-8.5H340.4z M330.3,16.6
			c0.3,0,0.6,0.1,0.9,0.4c0.2,0.2,0.4,0.5,0.4,0.8c0,0.3-0.1,0.6-0.4,0.9c-0.2,0.2-0.5,0.4-0.9,0.4c-0.4,0-0.7-0.1-0.9-0.4
			c-0.2-0.2-0.4-0.5-0.4-0.9c0-0.3,0.1-0.6,0.4-0.8C329.7,16.7,330,16.6,330.3,16.6 M331.9,14.2c0.3,0,0.6,0.1,0.8,0.3
			c0.2,0.2,0.3,0.5,0.3,0.8c0,0.3-0.1,0.6-0.3,0.8c-0.2,0.2-0.5,0.3-0.8,0.3c-0.3,0-0.6-0.1-0.8-0.3c-0.2-0.2-0.4-0.5-0.4-0.8
			c0-0.3,0.1-0.6,0.4-0.8C331.3,14.3,331.5,14.2,331.9,14.2 M333.4,16.6c0.3,0,0.6,0.1,0.9,0.4c0.2,0.2,0.4,0.5,0.4,0.8
			c0,0.3-0.1,0.6-0.4,0.9c-0.2,0.2-0.5,0.4-0.9,0.4c-0.3,0-0.6-0.1-0.9-0.4c-0.2-0.2-0.4-0.5-0.4-0.9c0-0.3,0.1-0.6,0.4-0.8
			C332.8,16.7,333.1,16.6,333.4,16.6"/>
		<path class="st0" d="M346.1,26c0-1.7,0.6-2.9,1.8-3.6c0.8-0.5,1.8-0.8,3.2-0.8c1.6,0,2.9,0.5,4,1.6c1.1,1.1,1.6,2.5,1.6,4.4
			c0,1.8-0.5,3.3-1.6,4.5c-1,1.1-2.3,1.7-3.8,1.7c-1.4,0-2.6-0.5-3.5-1.6c-0.5,0.6-1.1,0.9-1.8,0.9h-4.3v-1.7h3.6
			c0.3,0,0.5-0.1,0.7-0.3c0.2-0.2,0.3-0.4,0.3-0.7V26z M348.2,30.8c0.9,0.9,1.8,1.3,2.9,1.3c1,0,1.8-0.4,2.5-1.2
			c0.6-0.8,0.9-1.8,0.9-3.1c0-1.4-0.4-2.6-1.1-3.4c-0.6-0.7-1.4-1-2.5-1c-0.8,0-1.4,0.2-1.9,0.7c-0.6,0.5-0.8,1.2-0.8,2V30.8z"/>
		<path class="st0" d="M383.1,15.7v15.1c0,0.2,0,0.4-0.1,0.6h1.3v1.7h-1l-0.7-0.9h-0.1c-0.5,0.6-1.1,0.9-1.8,0.9h-14.5
			c-0.9,0-1.7-0.3-2.4-0.8c-1-0.8-1.6-1.9-1.6-3.2v-4.6l1.1-0.9h1.1v5.4c0,0.6,0.2,1.1,0.6,1.5c0.5,0.5,1.1,0.8,1.8,0.8h13
			c0.3,0,0.5-0.1,0.7-0.3c0.2-0.2,0.2-0.4,0.2-0.6V15.7H383.1z M371,23.7c-0.5-0.7-0.7-1.4-0.7-2.2c0-1,0.3-1.7,0.9-2.2
			c0.6-0.5,1.5-0.8,2.5-0.8c0.4,0,0.8,0,1.2,0.1v1.1c-0.4-0.1-0.7-0.2-1.1-0.2c-1.4,0-2.1,0.7-2.1,2c0,0.6,0.2,1.2,0.5,1.6
			c0.3,0.4,0.8,0.6,1.3,0.6h2.8v0.5l-0.5,0.6H369v-1.2H371z"/>
		<path class="st0" d="M390.9,15.7v15.1c0,0.6-0.2,1.2-0.7,1.6c-0.5,0.5-1,0.7-1.6,0.7h-4.4v-1.7h3.6c0.3,0,0.6-0.1,0.7-0.3
			c0.2-0.2,0.2-0.4,0.2-0.6V15.7H390.9z"/>
		<path class="st0" d="M399.9,22.3c1.6-0.5,3-0.7,4.3-0.7c2.1,0,3.7,0.6,4.8,1.9c0.9,1.1,1.4,2.5,1.4,4.2v3.1c0,0.2,0,0.4-0.1,0.6
			h0.9v1.7h-0.6l-0.7-0.9h-0.1c-0.2,0.2-0.3,0.3-0.6,0.5c-0.4,0.2-0.8,0.3-1.2,0.3h-5.3c-1.4,0-2.5,0.4-3.2,1.2
			c-0.5,0.6-0.8,1.3-0.8,2.3c0.1,2.7,1.7,4,5,4c1,0,2.1-0.1,3.3-0.4v0.8l-0.9,1.1c-0.7,0.2-1.6,0.3-2.7,0.3c-2.1,0-3.8-0.5-5-1.6
			c-1.2-1-1.8-2.4-1.8-4.1c0-1.5,0.4-2.7,1.2-3.5c1.1-1.2,2.9-1.7,5.2-1.7h4.1c0.6,0,1-0.3,1-0.9v-2.8c0-1.3-0.3-2.3-1-3
			c-0.8-0.8-1.9-1.2-3.3-1.2c-0.9,0-2.2,0.2-4,0.5V22.3z"/>
		<path class="st0" d="M417.8,21.9v8.9c0,0.2,0,0.4-0.1,0.6h1.3v1.7h-1l-0.7-0.8h-0.1c-0.5,0.6-1,0.8-1.8,0.8h-4.4v-1.7h3.6
			c0.3,0,0.5-0.1,0.7-0.2c0.2-0.2,0.3-0.4,0.3-0.7v-8.5H417.8z M413.4,35.6c0.3,0,0.6,0.1,0.9,0.4c0.2,0.2,0.4,0.5,0.4,0.8
			c0,0.3-0.1,0.6-0.4,0.9s-0.5,0.4-0.9,0.4c-0.3,0-0.6-0.1-0.9-0.4c-0.2-0.2-0.4-0.5-0.4-0.9c0-0.3,0.1-0.6,0.4-0.8
			C412.8,35.7,413.1,35.6,413.4,35.6 M416.5,35.6c0.4,0,0.7,0.1,0.9,0.4c0.2,0.2,0.4,0.5,0.4,0.8c0,0.3-0.1,0.6-0.4,0.9
			s-0.5,0.4-0.9,0.4c-0.3,0-0.6-0.1-0.9-0.4c-0.2-0.2-0.4-0.5-0.4-0.9c0-0.3,0.1-0.6,0.4-0.8C415.9,35.7,416.2,35.6,416.5,35.6"/>
		<path class="st0" d="M425.5,21.9v8.9c0,0.2,0,0.4-0.1,0.6h1.3v1.7h-1l-0.7-0.9H425c-0.5,0.6-1,0.9-1.8,0.9h-4.4v-1.7h3.6
			c0.3,0,0.5-0.1,0.7-0.2c0.2-0.2,0.3-0.4,0.3-0.7v-8.5H425.5z M421.5,16.6c0.4,0,0.6,0.1,0.9,0.4c0.2,0.2,0.4,0.5,0.4,0.8
			c0,0.3-0.1,0.6-0.4,0.9c-0.2,0.2-0.5,0.4-0.9,0.4c-0.3,0-0.6-0.1-0.9-0.4c-0.2-0.2-0.4-0.5-0.4-0.9c0-0.3,0.1-0.6,0.4-0.8
			C420.8,16.7,421.1,16.6,421.5,16.6 M424.5,16.6c0.3,0,0.6,0.1,0.9,0.4c0.2,0.2,0.4,0.5,0.4,0.8c0,0.3-0.1,0.6-0.4,0.9
			c-0.2,0.2-0.5,0.4-0.9,0.4c-0.4,0-0.7-0.1-0.9-0.4c-0.2-0.2-0.4-0.5-0.4-0.9c0-0.3,0.1-0.6,0.4-0.8
			C423.9,16.7,424.2,16.6,424.5,16.6"/>
		<path class="st0" d="M433.3,21.9v8.9c0,0.6-0.2,1.1-0.6,1.6c-0.5,0.5-1,0.8-1.7,0.8h-4.4v-1.7h3.6c0.3,0,0.5-0.1,0.7-0.3
			c0.2-0.2,0.3-0.4,0.3-0.6v-8.5H433.3z M429.2,16.6c0.4,0,0.6,0.1,0.9,0.4c0.2,0.2,0.4,0.5,0.4,0.8c0,0.3-0.1,0.6-0.4,0.9
			c-0.2,0.2-0.5,0.4-0.9,0.4c-0.3,0-0.6-0.1-0.9-0.4c-0.2-0.2-0.4-0.5-0.4-0.9c0-0.3,0.1-0.6,0.4-0.8
			C428.6,16.7,428.9,16.6,429.2,16.6 M432.3,16.6c0.3,0,0.6,0.1,0.9,0.4c0.2,0.2,0.4,0.5,0.4,0.8c0,0.3-0.1,0.6-0.4,0.9
			c-0.2,0.2-0.5,0.4-0.9,0.4c-0.4,0-0.7-0.1-0.9-0.4c-0.2-0.2-0.4-0.5-0.4-0.9c0-0.3,0.1-0.6,0.4-0.8
			C431.7,16.7,432,16.6,432.3,16.6"/>
		<path class="st0" d="M456,15.7v17.2c0,1.9-0.6,3.4-1.8,4.5c-1.2,1-2.8,1.5-4.9,1.5h-2.8c-2,0-3.6-0.5-4.8-1.5
			c-1.3-1.1-1.9-2.6-1.9-4.5v-5.1l1.1-0.9h1.1v5.9c0,1.6,0.4,2.8,1.3,3.4c0.9,0.6,2.4,1,4.6,1c2.1,0,3.6-0.3,4.5-0.8
			c1-0.7,1.5-1.8,1.5-3.5V15.7H456z"/>
		<path class="st0" d="M461.2,15.7v14.8c0,0.3,0.1,0.5,0.3,0.7c0.2,0.2,0.4,0.3,0.7,0.3h0.3v1.7h-1.2c-0.5,0-1-0.2-1.4-0.5
			c-0.6-0.5-0.9-1.1-0.9-1.8V15.7H461.2z"/>
		<path class="st0" d="M469,21.9v8.9c0,0.6-0.2,1.1-0.6,1.6c-0.5,0.5-1,0.8-1.7,0.8h-4.4v-1.7h3.6c0.3,0,0.5-0.1,0.7-0.3
			c0.2-0.2,0.3-0.4,0.3-0.6v-8.5H469z M464.4,35.6c0.3,0,0.6,0.1,0.9,0.4c0.2,0.2,0.4,0.5,0.4,0.8c0,0.3-0.1,0.6-0.4,0.9
			c-0.2,0.2-0.5,0.4-0.9,0.4c-0.4,0-0.7-0.1-0.9-0.4s-0.4-0.5-0.4-0.9c0-0.3,0.1-0.6,0.4-0.8C463.8,35.7,464.1,35.6,464.4,35.6
			 M467.5,35.6c0.4,0,0.6,0.1,0.9,0.4c0.2,0.2,0.4,0.5,0.4,0.8c0,0.3-0.1,0.6-0.4,0.9s-0.5,0.4-0.9,0.4c-0.3,0-0.6-0.1-0.9-0.4
			c-0.2-0.2-0.4-0.5-0.4-0.9c0-0.3,0.1-0.6,0.4-0.8C466.9,35.7,467.2,35.6,467.5,35.6"/>
		<path class="st0" d="M478.6,21.9v11c0,1.8-0.5,3.2-1.6,4.3c-0.8,0.8-1.9,1.3-3.3,1.6c-0.5,0.1-1.1,0.1-1.8,0.1c-0.4,0-0.8,0-1.2,0
			l-0.8-1v-0.8c0.5,0.1,1,0.1,1.6,0.1c3.3,0,5-1.5,5-4.4V21.9H478.6z"/>
		<path class="st0" d="M485.3,16.9c1.5-1,3.1-1.5,4.6-1.5c1.5,0,2.7,0.4,3.4,1.3c0.7,0.8,1,1.8,1,3.1c0,1-0.3,2-0.8,3
			c-0.5,0.8-1.3,1.9-2.5,3.4l-3.4,3.9l-1,1.2h8V32l-0.8,1h-9.3v-1.7l1.8-2.2l3.7-4.4c0.7-0.9,1.3-1.6,1.6-2.2
			c0.4-0.8,0.6-1.6,0.6-2.4c0-0.8-0.3-1.5-0.8-2c-0.5-0.5-1.2-0.8-2-0.8c-1,0-2,0.4-3.1,1.1L485.3,16.9z"/>
		<path class="st0" d="M501.8,33.4c-2.2,0-3.7-1.1-4.6-3.4c-0.6-1.4-0.9-3.2-0.9-5.4c0-2.7,0.5-4.9,1.4-6.7c0.9-1.8,2.3-2.6,4.1-2.6
			c1.8,0,3.1,0.9,4.1,2.6c1,1.7,1.5,4,1.5,6.7c0,2.5-0.4,4.6-1.2,6.1C505.2,32.5,503.7,33.4,501.8,33.4 M505.2,24.6
			c0-4.9-1.1-7.4-3.4-7.4c-2.3,0-3.4,2.5-3.4,7.4c0,2.1,0.2,3.6,0.6,4.6c0.5,1.5,1.5,2.3,2.8,2.3C504.1,31.5,505.2,29.2,505.2,24.6"
			/>
		<path class="st0" d="M528.9,15.7v15.7h1.3v1.7h-1.3c-0.1,1.8-0.7,3.3-1.8,4.3c-1.2,1-2.8,1.5-4.9,1.5h-2.8c-2,0-3.6-0.5-4.8-1.5
			c-1.3-1.1-1.9-2.6-1.9-4.5v-5.1l1.1-0.9h1.1v5.9c0,1.6,0.4,2.8,1.3,3.4c0.9,0.6,2.4,1,4.6,1c2.1,0,3.6-0.3,4.5-0.8
			c1-0.7,1.5-1.8,1.5-3.5V15.7H528.9z"/>
		<path class="st0" d="M541.4,15.3v1.9l-6.3,3.6c2.6,0.7,4.7,1.9,6.2,3.8c1.4,1.7,2.1,3.6,2.1,5.8c0,0.8-0.2,1.4-0.6,1.9
			c-0.4,0.5-1,0.7-1.6,0.7H530v-1.7h10.3c0.7,0,1-0.3,1-1c-0.1-1.7-0.6-3.2-1.5-4.4c-1.3-1.9-3.5-3-6.5-3.4c-0.1,0-0.2-0.1-0.2-0.2
			V20L541.4,15.3z"/>
	</g>
	<g>
		<rect x="1.4" y="0.6" class="st1" width="631.2" height="88.9"/>
	</g>
	<g>
		<polygon class="st0" points="28,56.8 29.4,56.8 29.3,59.5 31.8,58.6 32.3,60 29.7,60.7 31.4,62.7 30.2,63.6 28.7,61.4 27.2,63.6 
			26.1,62.7 27.7,60.7 25.2,60 25.6,58.6 28.1,59.5 		"/>
		<polygon class="st0" points="37.6,66.1 37.6,72 47.7,72 47.7,73.9 35.5,73.9 35.5,56.8 47.3,56.8 47.3,58.8 37.6,58.8 37.6,64.2 
			47,64.2 47,66.1 		"/>
		<polygon class="st0" points="55.7,73.9 53.6,73.9 49.3,61.6 51.5,61.6 54.8,71.6 58.2,61.6 60.4,61.6 		"/>
		<path class="st0" d="M72.8,68.4h-9.1c0,1.1,0.2,1.9,0.7,2.5c0.7,1,1.7,1.5,3,1.5c1.6,0,2.7-0.8,3.2-2.3h2c-0.3,1.3-0.8,2.3-1.8,3
			c-0.9,0.7-2.1,1.1-3.5,1.1c-1.9,0-3.3-0.6-4.3-1.9c-0.9-1.1-1.3-2.6-1.3-4.4c0-2.1,0.6-3.8,1.7-5c1-1,2.3-1.5,3.9-1.5
			c1.2,0,2.2,0.3,3.1,0.8c0.9,0.6,1.5,1.3,1.9,2.3C72.6,65.4,72.8,66.6,72.8,68.4L72.8,68.4z M70.7,66.8c0-1.1-0.3-1.9-0.9-2.6
			c-0.6-0.7-1.4-1-2.4-1c-1,0-1.8,0.3-2.5,1c-0.6,0.6-1,1.5-1.1,2.6H70.7z"/>
		<path class="st0" d="M75.5,61.7h1.8v2.2c0.7-1.7,1.8-2.5,3.4-2.5c0.2,0,0.4,0,0.7,0.1v2c-1.3,0-2.2,0.2-2.6,0.6
			c-0.9,0.6-1.3,1.8-1.3,3.6v6.4h-2V61.7z"/>
		<path class="st0" d="M90.8,61.7h2.1l-5.5,14.9c-0.6,1.7-1.7,2.5-3.2,2.5c-0.7,0-1.3-0.2-1.8-0.5l0.4-1.7c0.4,0.2,0.8,0.2,1.2,0.2
			c0.8,0,1.3-0.4,1.6-1.2l0.7-2l-4.2-12.3h2.1l3.1,9.6L90.8,61.7z"/>
		<path class="st0" d="M99.4,58.1c1.5-1,3-1.5,4.5-1.5c1.5,0,2.6,0.4,3.4,1.3c0.7,0.8,1,1.8,1,3.1c0,1-0.3,2-0.8,2.9
			c-0.5,0.8-1.3,1.9-2.4,3.3l-3.4,3.8l-1,1.2h7.8v0.7l-0.8,1h-9.2v-1.7l1.8-2.2l3.7-4.3c0.7-0.9,1.3-1.6,1.6-2.2
			c0.4-0.8,0.6-1.6,0.6-2.3c0-0.8-0.2-1.5-0.7-2c-0.5-0.5-1.2-0.8-2-0.8c-1,0-2,0.4-3,1.1L99.4,58.1z"/>
		<path class="st0" d="M115.7,74.3c-2.1,0-3.6-1.1-4.5-3.3c-0.6-1.4-0.9-3.2-0.9-5.3c0-2.6,0.5-4.8,1.4-6.6c0.9-1.7,2.3-2.6,4-2.6
			c1.7,0,3.1,0.8,4,2.5c1,1.7,1.5,3.9,1.5,6.6c0,2.5-0.4,4.5-1.2,6C119,73.4,117.6,74.3,115.7,74.3 M119,65.6c0-4.9-1.1-7.3-3.4-7.3
			c-2.2,0-3.4,2.4-3.4,7.3c0,2,0.2,3.5,0.6,4.6c0.5,1.5,1.5,2.3,2.8,2.3C117.9,72.4,119,70.2,119,65.6"/>
		<path class="st0" d="M140.4,61.7h-2.1c0-2.2-1.5-3.4-4.3-3.4c-1.1,0-2.1,0.3-2.8,0.8c-0.7,0.5-1.1,1.2-1.1,2
			c0,0.6,0.2,1.1,0.6,1.5c0.4,0.4,1.2,0.7,2.2,1l4.1,1.1c2.6,0.7,3.9,2.1,3.9,4.3c0,1.6-0.6,2.9-1.9,3.9c-1.1,0.9-2.7,1.3-4.8,1.3
			c-2.6,0-4.6-0.8-5.8-2.4c-0.6-0.9-1-2-1-3.5h2.1v0c0,1.2,0.4,2.2,1.3,2.9c0.9,0.7,2,1,3.6,1c1.4,0,2.4-0.2,3.1-0.7
			c0.8-0.6,1.2-1.3,1.2-2.3c0-1.3-1-2.2-3.1-2.7l-4.3-1.1c-2.2-0.6-3.4-1.9-3.4-3.9c0-1.6,0.6-2.9,1.8-3.8c1.1-0.8,2.5-1.2,4.2-1.2
			c2.5,0,4.3,0.7,5.3,2.2c0.6,0.8,0.9,1.8,0.9,2.8V61.7z"/>
		<path class="st0" d="M153.2,68.8h-6.6l-1.8,5.1h-2.3l6.1-17.1h2.8l6,17.1H155L153.2,68.8z M152.6,67l-2.6-7.8l-2.8,7.8H152.6z"/>
		<path class="st0" d="M162.1,66.6v7.4h-2.2V56.8h7.9c1.8,0,3.2,0.4,4.1,1.3c0.8,0.8,1.2,1.9,1.2,3.3c0,1-0.2,1.8-0.6,2.4
			c-0.4,0.6-1.1,1.2-2.1,1.7c0.8,0.3,1.4,0.7,1.7,1.2c0.4,0.5,0.6,1.6,0.6,3.2c0,1.2,0.1,2,0.2,2.4c0.1,0.4,0.4,0.8,0.8,1v0.5H171
			c-0.3-0.7-0.5-1.5-0.5-2.3l0-2.7c0-0.2-0.1-0.4-0.2-0.8c-0.1-0.4-0.3-0.6-0.4-0.8c-0.4-0.5-1.2-0.8-2.2-0.8H162.1z M162.1,64.6
			h5.3c2.2,0,3.4-1,3.4-2.9c0-2-1.1-2.9-3.4-2.9h-5.3V64.6z"/>
		<path class="st0" d="M189.5,65h-2.2c-0.1-1.2-0.9-1.8-2.5-1.8c-0.8,0-1.5,0.2-1.9,0.5c-0.5,0.3-0.7,0.7-0.7,1.3
			c0,0.8,0.8,1.4,2.3,1.7l1.9,0.4c1.2,0.3,2.1,0.7,2.7,1.2c0.5,0.5,0.8,1.2,0.8,2.2c0,1.2-0.5,2.1-1.4,2.8c-0.9,0.7-2.1,1-3.7,1
			c-1.7,0-3-0.4-3.9-1.2c-0.7-0.7-1.1-1.5-1.2-2.6h2.2c0.1,0.6,0.3,1,0.5,1.2c0.4,0.5,1.2,0.8,2.4,0.8c0.9,0,1.6-0.2,2.1-0.5
			c0.5-0.3,0.8-0.8,0.8-1.3c0-0.8-0.6-1.4-1.9-1.7l-1.8-0.4c-1.4-0.3-2.4-0.7-2.9-1.2c-0.6-0.5-1-1.3-1-2.3c0-1.1,0.4-2,1.3-2.7
			c0.9-0.7,2-1,3.4-1c1.5,0,2.7,0.4,3.5,1.1C189.1,63.2,189.5,64,189.5,65"/>
		<path class="st0" d="M192.1,79.1V61.7h1.8v1.9c0.9-1.4,2.2-2.2,3.9-2.2c1.7,0,3.1,0.7,4,2c0.8,1.2,1.2,2.7,1.2,4.6
			c0,2-0.5,3.6-1.6,4.7c-0.9,1-2.2,1.5-3.7,1.5c-1.5,0-2.8-0.6-3.8-1.7v6.5H192.1z M197.5,63.2c-1,0-1.9,0.4-2.5,1.3
			c-0.6,0.8-0.9,2-0.9,3.4c0,1.5,0.4,2.6,1.1,3.4c0.6,0.7,1.4,1.1,2.4,1.1c1.1,0,1.9-0.4,2.6-1.2c0.6-0.8,1-1.9,1-3.3
			c0-1.5-0.4-2.7-1.1-3.5C199.3,63.6,198.5,63.2,197.5,63.2"/>
		<path class="st0" d="M215.9,68.4h-9.1c0,1.1,0.2,1.9,0.7,2.5c0.7,1,1.7,1.5,3,1.5c1.6,0,2.7-0.8,3.2-2.3h2c-0.3,1.3-0.8,2.3-1.8,3
			c-0.9,0.7-2.1,1.1-3.5,1.1c-1.9,0-3.3-0.6-4.3-1.9c-0.9-1.1-1.3-2.6-1.3-4.4c0-2.1,0.6-3.8,1.7-5c1-1,2.3-1.5,3.9-1.5
			c1.2,0,2.2,0.3,3.1,0.8c0.9,0.6,1.5,1.3,1.9,2.3C215.8,65.4,215.9,66.6,215.9,68.4L215.9,68.4z M213.8,66.8c0-1.1-0.3-1.9-0.9-2.6
			c-0.6-0.7-1.4-1-2.4-1c-1,0-1.8,0.3-2.5,1c-0.6,0.6-1,1.5-1.1,2.6H213.8z"/>
		<path class="st0" d="M218.6,61.7h1.8v2.1c1-1.6,2.3-2.3,4.1-2.3c1.2,0,2.1,0.3,2.8,0.9c0.7,0.6,1.1,1.4,1.1,2.4v9.3h-1.9v-8.5
			c0-0.7-0.2-1.3-0.7-1.7c-0.5-0.4-1.1-0.6-1.9-0.6c-1,0-1.8,0.4-2.4,1.1c-0.6,0.7-0.9,1.7-0.9,3v6.7h-2V61.7z"/>
		<path class="st0" d="M236.5,61.7v1.6H234v8.2c0,0.3,0.1,0.5,0.3,0.7c0.2,0.2,0.5,0.3,0.8,0.3c0.3,0,0.8-0.1,1.4-0.2l0.2,1.7
			c-1,0.2-1.7,0.3-2.2,0.3c-1.6,0-2.4-0.6-2.4-1.9v-9h-1.7v-1.6h1.7v-2.5l1.9-0.9v3.4H236.5z"/>
		<path class="st0" d="M253.6,68.4h-9.1c0,1.1,0.2,1.9,0.7,2.5c0.7,1,1.7,1.5,3,1.5c1.6,0,2.7-0.8,3.2-2.3h2c-0.3,1.3-0.8,2.3-1.8,3
			c-0.9,0.7-2.1,1.1-3.5,1.1c-1.9,0-3.3-0.6-4.3-1.9c-0.9-1.1-1.3-2.6-1.3-4.4c0-2.1,0.6-3.8,1.7-5c1-1,2.3-1.5,3.9-1.5
			c1.2,0,2.2,0.3,3.1,0.8c0.9,0.6,1.5,1.3,1.9,2.3C253.4,65.4,253.6,66.6,253.6,68.4L253.6,68.4z M251.5,66.8c0-1.1-0.3-1.9-0.9-2.6
			c-0.6-0.7-1.4-1-2.4-1c-1,0-1.8,0.3-2.5,1c-0.6,0.6-1,1.5-1.1,2.6H251.5z"/>
		<path class="st0" d="M267.2,72.3v1.6c-0.5,0.2-1,0.3-1.3,0.3c-1.3,0-2-0.6-2.1-1.7c-0.9,1.2-2.3,1.8-4.2,1.8
			c-1.3,0-2.4-0.4-3.1-1.1c-0.6-0.6-1-1.5-1-2.5c0-1.2,0.4-2,1.2-2.7c0.5-0.3,1.4-0.7,2.9-1l4-0.9l0-1c0-1.2-0.9-1.8-2.8-1.8
			c-1.8,0-2.7,0.7-2.8,2.2h-2c0.1-1.1,0.3-1.9,0.8-2.5c0.8-1,2.2-1.5,4.1-1.5c3.1,0,4.6,1.1,4.6,3.3v6.9c0,0.6,0.3,0.9,0.8,0.9
			c0.1,0,0.2,0,0.5-0.1C267.1,72.3,267.1,72.3,267.2,72.3 M263.7,67.7l-3.2,0.8c-1.1,0.3-1.9,0.6-2.3,0.9c-0.4,0.3-0.6,0.7-0.6,1.3
			c0,1.3,0.8,1.9,2.4,1.9c1.1,0,2.1-0.4,2.9-1.1c0.5-0.5,0.8-1,0.8-1.6V67.7z"/>
		<path class="st0" d="M269.3,61.7h1.8v2.2c0.7-1.7,1.8-2.5,3.4-2.5c0.2,0,0.4,0,0.7,0.1v2c-1.3,0-2.2,0.2-2.6,0.6
			c-0.9,0.6-1.3,1.8-1.3,3.6v6.4h-2V61.7z"/>
		<path class="st0" d="M277.1,61.7h1.8v2.1c1-1.6,2.3-2.3,4.1-2.3c1.2,0,2.1,0.3,2.8,0.9c0.7,0.6,1.1,1.4,1.1,2.4v9.3H285v-8.5
			c0-0.7-0.2-1.3-0.7-1.7c-0.5-0.4-1.1-0.6-1.9-0.6c-1,0-1.8,0.4-2.4,1.1c-0.6,0.7-0.9,1.7-0.9,3v6.7h-2V61.7z"/>
		<path class="st0" d="M298.9,65h-2.2c-0.1-1.2-0.9-1.8-2.5-1.8c-0.8,0-1.5,0.2-1.9,0.5c-0.5,0.3-0.7,0.7-0.7,1.3
			c0,0.8,0.8,1.4,2.3,1.7l1.9,0.4c1.2,0.3,2.1,0.7,2.7,1.2c0.5,0.5,0.8,1.2,0.8,2.2c0,1.2-0.5,2.1-1.4,2.8c-0.9,0.7-2.1,1-3.7,1
			c-1.7,0-3-0.4-3.9-1.2c-0.7-0.7-1.1-1.5-1.2-2.6h2.2c0.1,0.6,0.3,1,0.5,1.2c0.4,0.5,1.2,0.8,2.4,0.8c0.9,0,1.6-0.2,2.1-0.5
			c0.5-0.3,0.8-0.8,0.8-1.3c0-0.8-0.6-1.4-1.9-1.7l-1.8-0.4c-1.4-0.3-2.4-0.7-2.9-1.2c-0.6-0.5-1-1.3-1-2.3c0-1.1,0.4-2,1.3-2.7
			c0.9-0.7,2-1,3.4-1c1.5,0,2.7,0.4,3.5,1.1C298.6,63.2,298.9,64,298.9,65"/>
		<path class="st0" d="M313.8,61.7h2.1l-5.5,14.9c-0.6,1.7-1.7,2.5-3.2,2.5c-0.7,0-1.3-0.2-1.8-0.5l0.4-1.7c0.4,0.2,0.8,0.2,1.2,0.2
			c0.8,0,1.3-0.4,1.6-1.2l0.7-2l-4.2-12.3h2.1l3.1,9.6L313.8,61.7z"/>
		<path class="st0" d="M322.9,61.4c1.8,0,3.3,0.6,4.2,1.9c0.9,1.1,1.3,2.6,1.3,4.5c0,2.1-0.6,3.8-1.7,4.9c-1,1-2.2,1.5-3.9,1.5
			c-1.9,0-3.3-0.6-4.3-1.9c-0.9-1.1-1.3-2.6-1.3-4.5c0-2.2,0.6-3.8,1.7-5C320,61.9,321.3,61.4,322.9,61.4 M322.9,63.2
			c-1.1,0-2,0.4-2.6,1.3c-0.6,0.8-1,2-1,3.4c0,1.5,0.4,2.7,1.1,3.5c0.6,0.7,1.5,1.1,2.5,1.1c1.1,0,2-0.4,2.6-1.2
			c0.6-0.8,0.9-1.9,0.9-3.3c0-1.6-0.3-2.8-1.1-3.6C324.7,63.5,323.9,63.2,322.9,63.2"/>
		<path class="st0" d="M340.8,73.9h-1.9V72c-0.9,1.5-2.2,2.2-3.9,2.2c-1.2,0-2.1-0.3-2.9-0.9c-0.7-0.6-1.1-1.4-1.1-2.4v-9.3h1.9v8.5
			c0,0.7,0.2,1.3,0.7,1.7c0.5,0.4,1.1,0.6,1.9,0.6c1,0,1.8-0.4,2.4-1.1c0.6-0.7,0.9-1.7,0.9-3v-6.7h1.9V73.9z"/>
		<path class="st0" d="M353.4,61.4c1.8,0,3.3,0.6,4.2,1.9c0.9,1.1,1.3,2.6,1.3,4.5c0,2.1-0.6,3.8-1.7,4.9c-1,1-2.2,1.5-3.9,1.5
			c-1.9,0-3.3-0.6-4.3-1.9c-0.9-1.1-1.3-2.6-1.3-4.5c0-2.2,0.6-3.8,1.7-5C350.5,61.9,351.8,61.4,353.4,61.4 M353.4,63.2
			c-1.1,0-2,0.4-2.6,1.3c-0.6,0.8-1,2-1,3.4c0,1.5,0.4,2.7,1.1,3.5c0.6,0.7,1.5,1.1,2.5,1.1c1.1,0,2-0.4,2.6-1.2
			c0.6-0.8,0.9-1.9,0.9-3.3c0-1.6-0.3-2.8-1.1-3.6C355.2,63.5,354.4,63.2,353.4,63.2"/>
		<path class="st0" d="M361.7,61.7h1.8v2.1c1-1.6,2.3-2.3,4.1-2.3c1.2,0,2.1,0.3,2.8,0.9c0.7,0.6,1.1,1.4,1.1,2.4v9.3h-1.9v-8.5
			c0-0.7-0.2-1.3-0.7-1.7c-0.5-0.4-1.1-0.6-1.9-0.6c-1,0-1.8,0.4-2.4,1.1c-0.6,0.7-0.9,1.7-0.9,3v6.7h-2V61.7z"/>
		<path class="st0" d="M385.1,68.4h-9.1c0,1.1,0.2,1.9,0.7,2.5c0.7,1,1.7,1.5,3,1.5c1.6,0,2.7-0.8,3.2-2.3h2c-0.3,1.3-0.8,2.3-1.8,3
			c-0.9,0.7-2.1,1.1-3.5,1.1c-1.9,0-3.3-0.6-4.3-1.9c-0.9-1.1-1.3-2.6-1.3-4.4c0-2.1,0.6-3.8,1.7-5c1-1,2.3-1.5,3.9-1.5
			c1.2,0,2.2,0.3,3.1,0.8c0.9,0.6,1.5,1.3,1.9,2.3C385,65.4,385.1,66.6,385.1,68.4L385.1,68.4z M383,66.8c0-1.1-0.3-1.9-0.9-2.6
			c-0.6-0.7-1.4-1-2.4-1c-1,0-1.8,0.3-2.5,1c-0.6,0.6-1,1.5-1.1,2.6H383z"/>
		<path class="st0" d="M402.6,68.4h-9.1c0,1.1,0.2,1.9,0.7,2.5c0.7,1,1.7,1.5,3,1.5c1.6,0,2.7-0.8,3.2-2.3h2c-0.3,1.3-0.8,2.3-1.8,3
			c-0.9,0.7-2.1,1.1-3.5,1.1c-1.9,0-3.3-0.6-4.3-1.9c-0.9-1.1-1.3-2.6-1.3-4.4c0-2.1,0.6-3.8,1.7-5c1-1,2.3-1.5,3.9-1.5
			c1.2,0,2.2,0.3,3.1,0.8c0.9,0.6,1.5,1.3,1.9,2.3C402.4,65.4,402.6,66.6,402.6,68.4L402.6,68.4z M400.5,66.8c0-1.1-0.3-1.9-0.9-2.6
			c-0.6-0.7-1.4-1-2.4-1c-1,0-1.8,0.3-2.5,1c-0.6,0.6-1,1.5-1.1,2.6H400.5z"/>
		<polygon class="st0" points="410.5,67.6 414.8,73.9 412.5,73.9 409.4,69.2 406.3,73.9 404,73.9 408.4,67.7 404.2,61.7 406.5,61.7 
			409.5,66.1 412.4,61.7 414.6,61.7 		"/>
		<path class="st0" d="M421.8,61.7v1.6h-2.5v8.2c0,0.3,0.1,0.5,0.3,0.7c0.2,0.2,0.5,0.3,0.8,0.3c0.3,0,0.8-0.1,1.4-0.2l0.2,1.7
			c-1,0.2-1.7,0.3-2.2,0.3c-1.6,0-2.4-0.6-2.4-1.9v-9h-1.7v-1.6h1.7v-2.5l1.9-0.9v3.4H421.8z"/>
		<path class="st0" d="M424.1,61.7h1.8v2.2c0.7-1.7,1.8-2.5,3.4-2.5c0.2,0,0.4,0,0.7,0.1v2c-1.3,0-2.2,0.2-2.6,0.6
			c-0.9,0.6-1.3,1.8-1.3,3.6v6.4h-2V61.7z"/>
		<path class="st0" d="M442.9,72.3v1.6c-0.5,0.2-1,0.3-1.3,0.3c-1.3,0-2-0.6-2.1-1.7c-0.9,1.2-2.3,1.8-4.2,1.8
			c-1.3,0-2.4-0.4-3.1-1.1c-0.6-0.6-1-1.5-1-2.5c0-1.2,0.4-2,1.2-2.7c0.5-0.3,1.4-0.7,2.9-1l4-0.9l0-1c0-1.2-0.9-1.8-2.8-1.8
			c-1.8,0-2.7,0.7-2.8,2.2h-2c0.1-1.1,0.3-1.9,0.8-2.5c0.8-1,2.2-1.5,4.1-1.5c3.1,0,4.6,1.1,4.6,3.3v6.9c0,0.6,0.3,0.9,0.8,0.9
			c0.1,0,0.2,0,0.5-0.1C442.8,72.3,442.8,72.3,442.9,72.3 M439.4,67.7l-3.2,0.8c-1.1,0.3-1.9,0.6-2.3,0.9c-0.4,0.3-0.6,0.7-0.6,1.3
			c0,1.3,0.8,1.9,2.4,1.9c1.1,0,2.1-0.4,2.9-1.1c0.5-0.5,0.8-1,0.8-1.6V67.7z"/>
		<path class="st0" d="M459.8,68.4h-9.1c0,1.1,0.2,1.9,0.7,2.5c0.7,1,1.7,1.5,3,1.5c1.6,0,2.7-0.8,3.2-2.3h2c-0.3,1.3-0.8,2.3-1.8,3
			c-0.9,0.7-2.1,1.1-3.5,1.1c-1.9,0-3.3-0.6-4.3-1.9c-0.9-1.1-1.3-2.6-1.3-4.4c0-2.1,0.6-3.8,1.7-5c1-1,2.3-1.5,3.9-1.5
			c1.2,0,2.2,0.3,3.1,0.8c0.9,0.6,1.5,1.3,1.9,2.3C459.6,65.4,459.8,66.6,459.8,68.4L459.8,68.4z M457.7,66.8c0-1.1-0.3-1.9-0.9-2.6
			c-0.6-0.7-1.4-1-2.4-1c-1,0-1.8,0.3-2.5,1c-0.6,0.6-1,1.5-1.1,2.6H457.7z"/>
		<path class="st0" d="M462.5,61.7h1.8v2.1c1-1.6,2.3-2.3,4.1-2.3c1.2,0,2.1,0.3,2.8,0.9c0.7,0.6,1.1,1.4,1.1,2.4v9.3h-1.9v-8.5
			c0-0.7-0.2-1.3-0.7-1.7c-0.5-0.4-1.1-0.6-1.9-0.6c-1,0-1.8,0.4-2.4,1.1c-0.6,0.7-0.9,1.7-0.9,3v6.7h-2V61.7z"/>
		<path class="st0" d="M480.4,61.7v1.6h-2.5v8.2c0,0.3,0.1,0.5,0.3,0.7c0.2,0.2,0.5,0.3,0.8,0.3c0.3,0,0.8-0.1,1.4-0.2l0.2,1.7
			c-1,0.2-1.7,0.3-2.2,0.3c-1.6,0-2.4-0.6-2.4-1.9v-9h-1.7v-1.6h1.7v-2.5l1.9-0.9v3.4H480.4z"/>
		<path class="st0" d="M482.6,61.7h1.8v2.2c0.7-1.7,1.8-2.5,3.4-2.5c0.2,0,0.4,0,0.7,0.1v2c-1.3,0-2.2,0.2-2.6,0.6
			c-0.9,0.6-1.3,1.8-1.3,3.6v6.4h-2V61.7z"/>
		<path class="st0" d="M498,61.7h2.1l-5.5,14.9c-0.6,1.7-1.7,2.5-3.2,2.5c-0.7,0-1.3-0.2-1.8-0.5l0.4-1.7c0.4,0.2,0.8,0.2,1.2,0.2
			c0.8,0,1.3-0.4,1.6-1.2l0.7-2l-4.2-12.3h2.1l3.1,9.6L498,61.7z"/>
		<path class="st0" d="M507.5,56.8c0.3,0,0.6,0.1,0.8,0.3c0.2,0.2,0.3,0.5,0.3,0.8c0,0.3-0.1,0.6-0.3,0.9c-0.2,0.2-0.5,0.3-0.8,0.3
			c-0.3,0-0.6-0.1-0.8-0.3c-0.2-0.2-0.3-0.5-0.3-0.9c0-0.3,0.1-0.6,0.3-0.8C506.9,57,507.2,56.8,507.5,56.8 M508.5,73.9h-1.9V61.6
			h1.9V73.9z"/>
		<path class="st0" d="M511.8,61.7h1.8v2.1c1-1.6,2.3-2.3,4.1-2.3c1.2,0,2.1,0.3,2.8,0.9c0.7,0.6,1.1,1.4,1.1,2.4v9.3h-1.9v-8.5
			c0-0.7-0.2-1.3-0.7-1.7c-0.5-0.4-1.1-0.6-1.9-0.6c-1,0-1.8,0.4-2.4,1.1c-0.6,0.7-0.9,1.7-0.9,3v6.7h-2V61.7z"/>
		<path class="st0" d="M534.1,61.7v1.6h-2.5v8.2c0,0.3,0.1,0.5,0.3,0.7c0.2,0.2,0.5,0.3,0.8,0.3c0.3,0,0.8-0.1,1.4-0.2l0.2,1.7
			c-1,0.2-1.7,0.3-2.2,0.3c-1.6,0-2.4-0.6-2.4-1.9v-9H528v-1.6h1.7v-2.5l1.9-0.9v3.4H534.1z"/>
		<path class="st0" d="M536.4,56.8h1.9v6.6c0.6-0.7,1.2-1.2,1.8-1.5c0.6-0.3,1.3-0.4,2.2-0.4c1.2,0,2.1,0.3,2.8,0.9
			c0.7,0.6,1,1.4,1,2.5v9.2h-1.9v-8.4c0-0.9-0.3-1.5-0.8-1.9c-0.5-0.4-1.1-0.6-1.7-0.6c-1,0-1.8,0.4-2.4,1.1c-0.6,0.7-0.9,1.7-0.9,3
			v6.7h-1.9V56.8z"/>
		<path class="st0" d="M559.9,68.4h-9.1c0,1.1,0.2,1.9,0.7,2.5c0.7,1,1.7,1.5,3,1.5c1.6,0,2.7-0.8,3.2-2.3h2c-0.3,1.3-0.8,2.3-1.8,3
			c-0.9,0.7-2.1,1.1-3.5,1.1c-1.9,0-3.3-0.6-4.3-1.9c-0.9-1.1-1.3-2.6-1.3-4.4c0-2.1,0.6-3.8,1.7-5c1-1,2.3-1.5,3.9-1.5
			c1.2,0,2.2,0.3,3.1,0.8c0.9,0.6,1.5,1.3,1.9,2.3C559.7,65.4,559.9,66.6,559.9,68.4L559.9,68.4z M557.7,66.8c0-1.1-0.3-1.9-0.9-2.6
			c-0.6-0.7-1.4-1-2.4-1c-1,0-1.8,0.3-2.5,1c-0.6,0.6-1,1.5-1.1,2.6H557.7z"/>
		<path class="st0" d="M576.9,56.8v17.1h-2v-1.7c-0.8,1.3-2,2-3.6,2c-1.8,0-3.2-0.7-4.2-2c-0.8-1.1-1.3-2.7-1.3-4.5
			c0-2.1,0.6-3.7,1.7-4.8c0.9-1,2.2-1.5,3.7-1.5c1.7,0,2.9,0.6,3.8,1.9v-6.4H576.9z M571.6,63.2c-1.1,0-2,0.4-2.6,1.3
			c-0.7,0.9-1,2-1,3.4c0,1.5,0.4,2.6,1.1,3.4c0.7,0.7,1.5,1.1,2.5,1.1c1,0,1.9-0.4,2.5-1.2c0.6-0.8,0.9-1.9,0.9-3.3
			c0-1.5-0.4-2.7-1.1-3.5C573.3,63.6,572.5,63.2,571.6,63.2"/>
		<path class="st0" d="M580,61.7h1.8v2.2c0.7-1.7,1.8-2.5,3.4-2.5c0.2,0,0.4,0,0.7,0.1v2c-1.3,0-2.2,0.2-2.6,0.6
			c-0.9,0.6-1.3,1.8-1.3,3.6v6.4h-2V61.7z"/>
		<path class="st0" d="M598.7,72.3v1.6c-0.5,0.2-1,0.3-1.3,0.3c-1.3,0-2-0.6-2.1-1.7c-0.9,1.2-2.3,1.8-4.2,1.8
			c-1.3,0-2.4-0.4-3.1-1.1c-0.6-0.6-1-1.5-1-2.5c0-1.2,0.4-2,1.2-2.7c0.5-0.3,1.4-0.7,2.9-1l4-0.9l0-1c0-1.2-0.9-1.8-2.8-1.8
			c-1.8,0-2.7,0.7-2.8,2.2h-2c0.1-1.1,0.3-1.9,0.8-2.5c0.8-1,2.2-1.5,4.1-1.5c3.1,0,4.6,1.1,4.6,3.3v6.9c0,0.6,0.3,0.9,0.8,0.9
			c0.1,0,0.2,0,0.5-0.1C598.6,72.3,598.7,72.3,598.7,72.3 M595.3,67.7l-3.2,0.8c-1.1,0.3-1.9,0.6-2.3,0.9c-0.4,0.3-0.6,0.7-0.6,1.3
			c0,1.3,0.8,1.9,2.4,1.9c1.1,0,2.1-0.4,2.9-1.1c0.5-0.5,0.8-1,0.8-1.6V67.7z"/>
		<polygon class="st0" points="612.2,73.9 610,73.9 607.5,64.3 605.1,73.9 602.9,73.9 599.4,61.6 601.5,61.6 604.1,71.2 606.4,61.6 
			608.8,61.6 611.2,71.2 613.7,61.6 615.9,61.6 		"/>
	</g>
</g>
</svg>
